<svg width="150" height="150" viewBox="0 0 150 150" fill="none" xmlns="http://www.w3.org/2000/svg">
    <style>
     .loading9-a {animation:loading9-pulse 1s infinite linear; opacity: .2;}
     .loading9-b {animation:loading9-pulse 1s 143ms infinite linear; opacity: .2;}
     .loading9-c {animation:loading9-pulse 1s 286ms infinite linear; opacity: .2;}
     .loading9-d {animation:loading9-pulse 1s 429ms infinite linear; opacity: .2;}
     .loading9-e {animation:loading9-pulse 1s 572ms infinite linear; opacity: .2;}
     .loading9-f {animation:loading9-pulse 1s 715ms infinite linear; opacity: .2;}
     .loading9-g {animation:loading9-pulse 1s 858ms infinite linear; opacity: .2;}
     .loading9-h {animation:loading9-pulse 1s 1s infinite linear; opacity: .2;}
     @keyframes loading9-pulse {
         0%{opacity: .2;}
         30%{opacity: 1;}
         50%{opacity: .2;}
         100%{opacity: .2;}
     }
     @media (prefers-reduced-motion: reduce) {
         .loading9-a, .loading9-b, .loading9-c, .loading9-d, .loading9-e, .loading9-f, .loading9-g, .loading9-h {
             animation: none;
         }
     }
    </style>
    <path class="fillCls10" d="M63.9263 62.3111H104.978V64.5006H61.7207C61.7207 64.2117 61.7779 63.9256 61.8889 63.6589C61.9999 63.3923 62.1626 63.1502 62.3677 62.9466C62.5727 62.7431 62.8159 62.5822 63.0834 62.4731C63.3509 62.364 63.6374 62.309 63.9263 62.3111V62.3111Z" fill="#5FCCF4"/>
    <path class="fillCls8" d="M140.831 64.0801H58.3887V66.5883H140.831V64.0801Z" fill="#FFF3EF"/>
    <path class="fillCls8" d="M41.2258 64.0801H40.6462C40.5496 64.7562 40.4369 65.6095 40.3242 66.5915H42.2078C41.7858 65.7945 41.4563 64.9519 41.2258 64.0801V64.0801Z" fill="#FFF3EF"/>
    <path class="fillCls13" d="M31.15 74.6409L25.2578 132.275H26.9482L33.6936 76.621C32.9048 76.0415 32.0516 75.3653 31.15 74.6409Z" fill="#7BCAB5"/>
    <path class="fillCls13" d="M42.2093 66.5752H40.3258C40.2131 67.6055 40.1165 68.7646 40.0843 69.956H44.6725L38.2168 132.275H39.9072L47.4415 71.0829C45.1887 70.2985 43.3184 68.6871 42.2093 66.5752Z" fill="#7BCAB5"/>
    <path class="fillCls13" d="M138.529 69.795C138.895 69.6337 139.207 69.3702 139.427 69.0361C139.647 68.7019 139.765 68.3114 139.769 67.9114V66.5752H58.3887V69.956H122.656L130.351 132.275H132.041L125.586 69.956H135.615L143.31 132.275H145.001L138.529 69.795Z" fill="#7BCAB5"/>
    <path class="fillCls16" d="M115.447 59.445L63.2043 59.4983L71.7567 19.731L124.027 19.7047L115.447 59.445Z" fill="#B4EBFF"/>
    <path class="loading9-h fillCls14" d="M83.1079 31.3956L85.7224 29.0507L89.7383 33.3092L87.1239 35.6541L83.1079 31.3956Z" fill="#0E4D46"/>
    <path class="loading9-g fillCls14" d="M86.3913 38.2948L86.1487 41.6369L79.9766 41.6099L80.2461 38.2678L86.3913 38.2948Z" fill="#0E4D46"/>
    <path class="loading9-f fillCls14" d="M89.1416 46.2192L84.4519 50.4508L82.2148 48.079L86.9046 43.8474L89.1416 46.2192Z" fill="#0E4D46"/>
    <path class="loading9-e fillCls14" d="M94.2866 53.1459H90.8906L91.3488 47.1355H94.7718L94.2866 53.1459Z" fill="#0E4D46"/>
    <path class="loading9-d fillCls14" d="M103.748 48.1323L101.133 50.4771L97.1172 46.2186L99.7316 43.8738L103.748 48.1323Z" fill="#0E4D46"/>
    <path class="loading9-c fillCls14" d="M101.105 38.322H107.251L107.008 41.6641H100.836L101.105 38.322Z" fill="#0E4D46"/>
    <path class="loading9-b fillCls14" d="M105.013 31.853L100.35 36.0846L98.1133 33.7397L102.776 29.4812L105.013 31.853Z" fill="#0E4D46"/>
    <path class="loading9-a fillCls14" d="M95.9073 32.7973H92.4844L92.9426 26.7869L96.3655 26.8138L95.9073 32.7973Z" fill="#0E4D46"/>
    <path class="fillCls5" d="M41.2263 19.8076C41.2263 19.8076 40.6789 33.9747 34.996 34.6347C33.7081 34.7796 29.4258 34.2966 29.4258 34.2966L31.7762 20.5643L41.2263 19.8076Z" fill="#FDE5E0"/>
    <path class="strokeCls1" d="M22.2449 99.771L11.6035 138.661" stroke="#222222" stroke-miterlimit="10" stroke-linecap="round"/>
    <path class="strokeCls1" d="M32.1472 99.771L21.5059 138.661" stroke="#222222" stroke-miterlimit="10" stroke-linecap="round"/>
    <path class="strokeCls1" d="M46.7656 99.771L57.407 138.661" stroke="#222222" stroke-miterlimit="10" stroke-linecap="round"/>
    <path class="strokeCls1" d="M36.8633 99.771L47.5047 138.661" stroke="#222222" stroke-miterlimit="10" stroke-linecap="round"/>
    <path class="strokeCls1" d="M18.1719 115.017H50.8849" stroke="#222222" stroke-miterlimit="10"/>
    <path class="fillCls5" d="M85.546 60.2803L84.4029 59.7329L82.2779 57.6884C82.2214 57.6262 82.1513 57.578 82.0731 57.5473C81.995 57.5165 81.9108 57.5042 81.8271 57.5113L80.9578 57.5596L80.7807 57.3342C80.6959 57.2393 80.583 57.174 80.4584 57.1479C80.3338 57.1218 80.2042 57.1363 80.0884 57.1893L79.7665 57.3503L79.5894 57.2376C79.5001 57.1669 79.3875 57.1326 79.274 57.1416C79.1605 57.1505 79.0546 57.2021 78.9776 57.2859C78.2854 57.9781 76.4662 59.7651 75.0817 60.4574C73.3269 61.3106 70.9443 61.8419 66.8873 61.7936C64.4242 61.7775 60.4016 61.6885 57.9062 61.7046C57.934 61.8426 58.0327 62.0759 58.0371 62.2165V70.3896C60.3231 69.5524 68.7709 66.4462 74.3894 63.5967C74.3894 63.5967 77.5287 62.7434 78.8971 62.5824C80.2655 62.4214 81.151 60.8921 81.151 60.8921L82.6804 60.2481C82.6804 60.2481 83.2438 61.858 84.2902 62.019H85.3206C85.1001 61.8265 84.8955 61.6166 84.7088 61.3911C84.5317 61.1818 84.4512 60.9243 84.2902 60.6828C84.2902 60.6989 85.546 60.8599 85.546 60.2803Z" fill="#FDE5E0"/>
    <path class="fillCls4" d="M44.9284 49.1729C42.627 42.9811 40.6023 35.7323 34.6588 35.7324C28.0597 35.7326 18.709 41.3132 18.709 41.3132L38.3574 77.506L40.9002 77.1097C40.9002 77.1097 40.3321 73.523 40.2063 71.2812C40.0103 67.7874 40.9002 62.5137 40.9002 62.5137C40.9002 62.5137 41.444 67.1781 44.5158 69.5227C46.4825 71.0239 48.0368 71.119 50.1709 72.3709C52.4172 73.6887 53.1066 76.313 55.6943 76.02C58.3361 75.7209 58.3361 68.7695 58.3361 65.0709C58.3361 57.2963 55.1179 58.4521 53.1366 57.2963C53.1366 57.2963 47.7022 56.6359 44.9284 49.1729Z" fill="#CAA1C7"/>
    <path class="fillCls5" d="M72.957 124.692C72.957 124.692 75.0982 126.286 75.3075 127.831C75.5168 129.377 75.8387 131.277 75.8387 131.277L80.0406 130.407V127.606C80.0406 127.606 77.2393 123.871 76.853 122.31C76.4666 120.748 76.4988 122.31 76.4988 122.31L72.957 124.692Z" fill="#FDE5E0"/>
    <path class="fillCls5" d="M52.6893 124.934C52.6893 124.934 52.4478 129.232 50.9346 131.116C49.4213 132.999 49.6466 134.013 49.6466 134.013C49.6466 134.013 55.233 136.316 56.4082 134.432C56.4082 134.432 55.9252 131.76 56.4082 129.441C56.8911 127.123 57.4385 124.934 57.4385 124.934H52.6893Z" fill="#FDE5E0"/>
    <path class="fillCls2" d="M65.486 89.355C65.486 89.355 75.3385 120.136 76.8518 121.231L72.6822 124.934C72.6822 124.934 70.3156 120.732 68.915 118.977C67.772 117.56 60.7529 108.03 60.7529 108.03L52.4941 89.355H65.486Z" fill="#F58F87"/>
    <path class="fillCls2" d="M38.4082 76.9104L73.7453 75.6708C74.7184 75.6392 75.6693 75.9657 76.4177 76.5884V76.5884C76.978 77.0493 77.4027 77.6536 77.6465 78.3369C77.8903 79.0202 77.9442 79.7568 77.8023 80.4683C76.9168 84.7828 74.7918 93.8465 72.0227 98.5956C67.7082 106.001 61.6389 117.109 59.5783 121.875C58.0811 125.352 58.3387 126.382 58.3387 126.382L52.6075 125.416C52.6075 125.416 57.4371 96.2291 61.3975 91.0775C61.3975 91.0775 52.0601 97.6297 39.0844 98.0483C26.1087 98.4669 38.4082 76.9104 38.4082 76.9104Z" fill="#F58F87"/>
    <path class="fillCls7" d="M42.9153 17.5861C42.9534 17.2768 42.9204 16.963 42.8187 16.6684V16.6684C42.7458 16.4259 42.6431 16.1934 42.5128 15.9762C41.2249 13.8028 38.9711 12.9979 36.3952 13.4808C36.3952 13.4808 31.6461 8.40969 26.4944 11.1465C21.3428 13.8833 22.8722 15.2517 20.6988 16.2982C18.5255 17.3446 16.5131 18.713 16.5936 22.1743C16.6741 25.6355 17.801 27.4869 15.6277 29.3383C13.4543 31.1896 10.315 31.1414 10.637 34.828C10.959 38.5146 10.959 39.0781 9.26858 40.527C7.5782 41.9759 6.77325 43.4248 8.78562 45.5177C10.798 47.6105 7.09523 48.7375 6.61226 51.5548C6.1293 54.3721 9.18809 56.6259 9.18809 56.6259H27.6213C27.6213 56.6259 31.2919 52.9232 29.4244 49.7839C27.5569 46.6446 29.6337 46.8056 31.5656 45.0347C33.4974 43.2638 30.1972 42.3784 30.7606 39.8026C31.3241 37.2267 34.1414 38.4342 34.8658 35.2949C35.5903 32.1556 35.3166 28.2596 35.3166 28.2596C35.3166 28.2596 33.4169 28.1309 33.8999 25.9575C34.3829 23.7841 36.2343 23.4622 37.3612 24.6696C37.3612 24.6696 39.6472 23.6393 40.581 21.7396C40.7549 21.3909 40.9484 21.0523 41.1605 20.7254C41.08 21.6913 41.0478 22.4479 41.0478 22.4479C42.867 21.5947 42.9958 18.9867 42.9153 17.5861Z" fill="#3F62A3"/>
    <path class="fillCls5" d="M80.8603 59.4109L76.3848 63.0815C77.2863 62.8722 78.2683 62.6629 78.8962 62.5824C80.2646 62.4214 81.15 60.892 81.15 60.892L82.6794 60.2481C82.6794 60.2481 83.2429 61.858 84.2893 62.019H85.3197C85.3197 62.019 85.0782 61.858 84.5469 61.1174L83.0497 58.6382L80.8603 59.4109Z" fill="#FDE5E0"/>
    <path class="fillCls1" d="M8.28803 56.1432L9.99451 55.9178C16.69 55.0377 23.4723 55.0431 30.1664 55.9339L31.2612 56.0788C32.4655 56.2421 33.595 56.7569 34.5084 57.5586C35.4218 58.3603 36.0786 59.4135 36.3967 60.5865L37.5558 64.8205C39.7012 72.7311 40.885 80.8715 41.0815 89.0655V89.8382C41.0983 90.5349 41.2637 91.2199 41.5666 91.8475C41.8695 92.4751 42.3029 93.0307 42.8379 93.4773C43.3729 93.9238 43.997 94.251 44.6686 94.4369C45.3402 94.6228 46.0438 94.6631 46.7322 94.5552C50.757 93.9112 55.973 93.4927 58.8064 94.9416V96.4066C58.8077 97.1275 58.5446 97.8239 58.0669 98.3638C57.5893 98.9038 56.9302 99.2499 56.2145 99.3366L38.1032 101.59C38.1032 101.59 25.3207 102.991 16.5951 100.979C15.8043 100.796 15.0699 100.424 14.4556 99.8938C13.8412 99.3636 13.3654 98.6915 13.0694 97.936L11.8459 94.7484C8.7557 85.3176 6.66215 75.5891 5.59951 65.722L5.01995 60.2967C4.91904 59.3156 5.2036 58.3337 5.81347 57.5586C6.42334 56.7835 7.31072 56.2759 8.28803 56.1432V56.1432Z" fill="#F4DDA0"/>
    <path class="fillCls3" d="M58.9965 123.858L52.8828 122.659L52.3274 125.49L58.4411 126.689L58.9965 123.858Z" fill="#F8AEA4"/>
    <path class="fillCls3" d="M76.2732 120.22L71.5469 122.948L72.9893 125.447L77.7157 122.718L76.2732 120.22Z" fill="#F8AEA4"/>
    <path class="fillCls11" d="M49.9993 132.548C49.9993 132.548 48.6308 133.691 48.8401 139.004H52.9293V137.813C53.3142 137.893 53.6539 138.118 53.8791 138.441L54.2977 139.101L67.5793 139.004C67.5793 139.004 67.5793 138.28 67.4344 138.006C67.0963 137.314 66.2109 136.525 64.0858 136.042L59.0307 134.867C58.4161 134.719 57.8432 134.434 57.3551 134.032C56.867 133.63 56.4766 133.123 56.2134 132.548C56.2134 132.548 52.9293 134.689 49.9993 132.548Z" fill="#37B4A8"/>
    <path class="fillCls12" d="M48.8242 138.537H52.9294V139.101C52.9294 139.25 52.8701 139.393 52.7644 139.499C52.6587 139.605 52.5154 139.664 52.366 139.664H49.3877C49.2382 139.664 49.0949 139.605 48.9892 139.499C48.8836 139.393 48.8242 139.25 48.8242 139.101V138.537Z" fill="#292B68"/>
    <path class="fillCls11" d="M75.5804 130.053C75.5804 130.053 75.0814 131.856 78.6553 135.704L81.5209 133.482L80.7643 132.613C80.9317 132.533 81.1134 132.488 81.2987 132.479C81.484 132.471 81.669 132.5 81.8429 132.565L82.5513 132.806L91.8403 125.497C91.8403 125.497 91.3734 124.966 91.0998 124.837C90.4075 124.499 89.2806 124.403 87.4775 125.207C85.9481 125.884 84.3221 126.576 83.1469 127.075C82.591 127.298 81.9929 127.397 81.3948 127.363C80.7967 127.33 80.2132 127.166 79.6856 126.882V126.882C79.6856 126.882 80.072 129.055 79.589 129.763C79.412 130.037 78.6714 128.798 78.3977 129.055C77.7699 129.602 76.8683 130.053 75.5804 130.053Z" fill="#37B4A8"/>
    <path class="fillCls12" d="M81.505 134.319L79.5248 135.865C79.4041 135.96 79.2512 136.005 79.0981 135.99C78.9451 135.975 78.8038 135.901 78.7038 135.784L78.3496 135.366L81.2313 133.128L81.6016 133.546C81.6486 133.602 81.6835 133.668 81.7042 133.738C81.7249 133.808 81.7309 133.881 81.7218 133.954C81.7128 134.026 81.6888 134.096 81.6515 134.159C81.6142 134.222 81.5643 134.277 81.505 134.319V134.319Z" fill="#292B68"/>
    <path class="fillCls12" d="M91.7607 126.382L83.1317 133.063C83.0021 133.166 82.8378 133.216 82.6729 133.201C82.508 133.186 82.3552 133.108 82.2463 132.983L81.9082 132.613L91.5353 125.159L91.8573 125.529C91.9108 125.59 91.9509 125.661 91.9751 125.738C91.9994 125.815 92.0072 125.897 91.9981 125.977C91.989 126.058 91.9632 126.135 91.9223 126.205C91.8814 126.275 91.8264 126.335 91.7607 126.382V126.382Z" fill="#292B68"/>
    <path class="fillCls12" d="M53.8965 138.537H67.5645V139.052C67.5645 139.215 67.5 139.37 67.3853 139.485C67.2705 139.6 67.1149 139.664 66.9527 139.664H54.5243C54.3621 139.664 54.2065 139.6 54.0918 139.485C53.977 139.37 53.9126 139.215 53.9126 139.052V138.537H53.8965Z" fill="#292B68"/>
    <path class="fillCls6" d="M39.3267 14.7204C38.57 14.4951 37.749 14.5434 36.9762 14.6882C34.8351 15.1068 32.6939 16.3625 31.9212 18.4071C31.5187 19.4696 31.5187 20.6609 31.2772 21.7879C31.02 22.9546 30.5048 24.049 29.7693 24.9906C29.0339 25.9322 28.0969 26.6972 27.0271 27.2293C28.3794 26.6497 29.8766 26.4726 31.2611 25.9736C32.6456 25.4745 34.3199 24.2993 34.5131 22.6894C34.4112 23.5261 34.1169 24.3278 33.6532 25.0316C33.1895 25.7355 32.5692 26.3224 31.8407 26.7463C30.424 27.5513 28.7497 27.6801 27.1559 28.0664C25.5621 28.4528 23.9039 29.2256 23.2922 30.7389C22.6804 32.2522 23.3405 33.9264 24.3386 35.1822C24.9987 35.9871 25.8197 36.7116 26.2544 37.6453C26.641 38.4951 26.7039 39.4569 26.4315 40.3499C25.3689 43.6824 20.2012 44.3746 19.3479 47.7715C18.8489 49.7195 20.1207 51.764 21.795 52.8749C22.6804 53.4544 23.7269 53.9213 24.1937 54.8711C24.3649 55.204 24.435 55.5481 24.4371 55.8968C24.4394 56.2749 24.7118 56.6259 25.0899 56.6259V56.6259C25.3023 56.6259 25.5014 56.5136 25.593 56.3219C25.9767 55.5193 26.1211 54.6036 25.8358 53.7764C25.5138 52.8427 24.9504 52.3597 24.6123 51.5869C24.3992 51.1146 24.2944 50.6005 24.3056 50.0825C24.3167 49.5644 24.4435 49.0553 24.6767 48.5925C25.1275 47.7071 25.9485 47.0471 26.7856 46.4997C27.6228 45.9523 28.8302 45.083 28.798 43.9561C28.7819 43.6341 28.6692 43.3121 28.6209 42.9901C28.4438 41.6217 29.5225 40.4787 30.7621 39.7864C31.3416 37.2428 34.1428 38.418 34.8673 35.2948C35.5917 32.1717 35.3181 28.2596 35.3181 28.2596C35.3181 28.2596 33.4184 28.1308 33.9014 25.9575C34.3843 23.7841 36.2357 23.4622 37.3626 24.6696C37.3626 24.6696 39.6487 23.6392 40.5824 21.7396C40.7035 21.491 40.8378 21.2492 40.9849 21.0151C41.6771 19.0832 41.6449 15.461 39.3267 14.7204Z" fill="#4C73BB"/>
</svg>
